<svg height='300px' width='300px' fill="#000000"
    xmlns="http://www.w3.org/2000/svg" viewBox="0 0 64 64" x="0px" y="0px">
    <path d="M32,8A24,24,0,1,0,56,32,24.028,24.028,0,0,0,32,8Zm0,2a21.979,21.979,0,0,1,17.734,9H37.91a5.993,5.993,0,0,0-11.82,0H14.266A21.979,21.979,0,0,1,32,10Zm4,10a4,4,0,1,1-4-4A4,4,0,0,1,36,20ZM32,54A21.983,21.983,0,0,1,12.964,20.993c.013,0,.023.007.036.007H26.09a5.993,5.993,0,0,0,11.82,0H51.04A21.983,21.983,0,0,1,32,54Z"></path>
    <path d="M60.316,11.948a1,1,0,1,0-.632-1.9l-5.459,1.819q-.909-1-1.906-1.918l3.462-4.328a1,1,0,1,0-1.562-1.25L50.8,8.647a29.913,29.913,0,0,0-37.6,0L9.781,4.375a1,1,0,1,0-1.562,1.25l3.462,4.328q-.994.918-1.906,1.918L4.316,10.052a1,1,0,1,0-.632,1.9L8.4,13.519a30,30,0,1,0,47.21,0ZM32,60A28,28,0,1,1,60,32,28.032,28.032,0,0,1,32,60Z"></path>
    <path d="M32,42a3,3,0,0,0-3,3v4a3,3,0,0,0,6,0V45A3,3,0,0,0,32,42Zm0,2a1,1,0,0,1,1,1v1H31V45A1,1,0,0,1,32,44Zm0,6a1,1,0,0,1-1-1V48h2v1A1,1,0,0,1,32,50Z"></path>
    <circle cx="32" cy="29" r="1"></circle>
    <circle cx="36" cy="29" r="1"></circle>
    <circle cx="28" cy="29" r="1"></circle>
</svg>