<svg width="160" height="160" viewBox="0 0 160 160" fill="none" xmlns="http://www.w3.org/2000/svg"><path d="M82.12 106.413c-3.588-12.232-17.883-18.83-31.857-14.7-14.028 4.131-22.434 17.383-18.847 29.669 3.588 12.232 17.883 18.831 31.857 14.7s22.434-17.383 18.846-29.669zm3.479 3.166c3.051 12.393 17.026 19.582 31.214 16.041 14.188-3.541 23.183-16.417 20.078-28.81-3.052-12.393-17.026-19.582-31.215-16.041-14.188 3.54-23.183 16.417-20.078 28.81zM44.583 34.2c12.66-.426 23.298 11.01 23.777 25.532.479 14.522-9.415 26.596-22.075 26.969-12.66.372-23.298-11.011-23.777-25.533C22.083 46.7 31.923 34.625 44.583 34.2z" fill="#B481F7"/><path d="M126.606 39.838l-4.893-11.01-36.118 16.915-2.021-21.862-15.107 2.978 6.756 61.81 13.99-4.203-1.862-19.68 39.84 15.212 5-13.032-35.957-13.67 30.372-13.458z" fill="#B481F7"/><path d="M67.397 117.894a4.448 4.448 0 004.444-4.453 4.449 4.449 0 00-4.444-4.453 4.449 4.449 0 00-4.444 4.453c0 2.46 1.99 4.453 4.444 4.453zm33.3-6.223a4.448 4.448 0 004.444-4.453 4.448 4.448 0 00-4.444-4.453 4.449 4.449 0 00-4.444 4.453 4.449 4.449 0 004.444 4.453z" fill="#000"/></svg>