<svg width="160" height="160" viewBox="0 0 160 160" fill="none" xmlns="http://www.w3.org/2000/svg"><path d="M66.762 104.454C48.241 93.789 41.755 69.937 52.286 51.18c10.53-18.757 34.058-25.3 52.58-14.636.148.075.296.175.444.25l-38.548 67.66z" fill="#5AE1FF"/><path d="M68.07 109.423l-3.107-1.823c-20.174-11.789-27.08-37.889-15.439-58.319 11.616-20.38 37.462-27.398 57.587-15.635l3.107 1.823-42.148 73.954zM86.098 35.22c-19.31-.025-34.996 15.81-35.02 35.365-.025 11.364 5.351 22.054 14.452 28.748l34.774-61.041a34.387 34.387 0 00-14.206-3.072z" fill="#000"/><path d="M94.238 56.475c18.447 10.79 24.761 34.666 14.107 53.348-10.655 18.682-34.207 25.101-52.655 14.311l38.548-67.66z" fill="#fff"/><path d="M74.902 133a41.535 41.535 0 01-21.012-5.719l-3.108-1.824 42.173-73.953 3.107 1.823c20.125 11.764 27.055 37.938 15.439 58.319-7.571 13.237-21.506 21.379-36.599 21.354zm-14.206-10.365c16.154 7.318 35.539 1.224 44.565-14.611 9.027-15.835 4.563-35.89-9.766-46.38l-34.799 60.991z" fill="#000"/></svg>